<?xml version="1.0" encoding="utf-8"?>
<!-- Generator: Adobe Illustrator 19.0.0, SVG Export Plug-In . SVG Version: 6.00 Build 0)  -->
<svg version="1.1" id="Layer_1" xmlns="http://www.w3.org/2000/svg" xmlns:xlink="http://www.w3.org/1999/xlink" x="0px" y="0px"
	 viewBox="0 0 450 579" style="enable-background:new 0 0 450 579;" xml:space="preserve">
<style type="text/css">
	.st0{display:none;fill:#FCCA4B;}
	.st1{fill:#EE2235;}
	.st2{fill:#EF404A;}
	.st3{fill:#F3B387;}
	.st4{fill:#FAAE78;}
	.st5{fill:#FBBB8F;}
	.st6{fill:#344D5E;}
	.st7{fill:#FCCA4B;}
	.st8{fill:#2B2B2B;}
</style>
<polygon id="XMLID_41_" class="st0" points="225.1,422.6 154.7,402.1 93,415.6 225.1,550.3 357.1,415.6 295.4,402.1 "/>
<path id="XMLID_52_" class="st1" d="M0,376.6c0,0,43-65.5,54.5-70s4.5-40.8,15-73s24-61.7,36-67c12-5.3,56.2-88,84.3-96
	s58.7-75,75.2-69c8.6,3.1,28.7-4.5,50-0.4C334.7,5,354.6,13,363,16.1c17.5,6.5,37-6.5,40.5,2.5s3,18.5,28.5,21.5s4,15.7,10,40.2
	s4.4,42,5.5,48.3c2.5,14-28.2,98.6-35.5,109.5c-7.5,11.2,0.5,42.5,3,53.5s-9,28-20.5,30.5s-36.5,19-36.5,19L0,376.6z"/>
<polygon id="XMLID_49_" class="st2" points="154.7,382.6 74,395.6 0,376.6 128.7,330.1 "/>
<polygon id="XMLID_50_" class="st3" points="289.7,298 253.3,320.6 225,320.6 196.7,320.6 160.3,298 128.7,330.1 154.7,382.6 
	225,395.6 295.3,382.6 321.3,330.1 "/>
<polygon id="XMLID_47_" class="st4" points="155.7,206 146.3,188 140.7,202.5 146.3,240.6 154.7,250.9 "/>
<polygon id="XMLID_73_" class="st5" points="225,84.3 154.7,121.7 154.7,202.2 154.7,278.3 160.3,300.2 196.7,323.1 225,339.3 
	253.3,323.1 289.7,300.2 295.3,278.3 295.3,202.2 295.3,121.7 "/>
<polygon id="XMLID_45_" class="st2" points="295.3,382.6 376,395.6 450,376.6 321.3,330.1 "/>
<polygon id="XMLID_44_" class="st4" points="294.3,206 303.7,188 309.3,202.5 303.7,240.6 295.3,250.2 "/>
<polygon id="XMLID_43_" class="st6" points="0,376.6 225.1,579 450,376.6 376,395.6 295.3,382.6 225,395.6 154.7,382.6 74,395.6 "/>
<polygon id="XMLID_40_" class="st2" points="295.4,393 225.1,411.6 154.7,393 77.3,411.6 225.1,565 372.8,411.6 "/>
<polygon id="XMLID_46_" class="st7" points="357,415.6 295.4,402.1 225,422.6 154.6,402.1 93,415.6 225,550.3 "/>
<polygon id="XMLID_35_" class="st2" points="256.9,411.8 289.4,427 336.3,438.1 360,413.9 313.3,403.7 307,411.1 292.5,400.1 "/>
<polygon id="XMLID_34_" class="st2" points="99.5,423.6 119.3,407.5 90,413.9 "/>
<polygon id="XMLID_33_" class="st2" points="117.2,441.6 139.9,403 153.1,400.1 192.4,411.6 153.1,428.7 226.3,449.6 318.7,459.6 
	286.2,489.2 147.6,472.7 "/>
<polygon id="XMLID_32_" class="st2" points="209.2,535.5 239.8,536.6 264.3,511.5 231.6,514.1 200.9,493.4 172.3,497.8 "/>
<path id="XMLID_31_" class="st8" d="M155.3,208l-7.7-15.6c0,0-5.4-9.9-2.6-12.3c0.8-0.7-1-3,0-5.8s1-10.8-0.5-13
	c-1.5-2.2-4.3-10,0-15.8c4.3-5.8,5.3-7,7.3-13.2c2-6.3,1.8-4.5,1.8-8.8s-1-4,3.8-12.2s1.8-7,6.2-10s6.2-7,6.2-7s3.5,2.2,9.8,0
	s21.5-11,25.8-11.8s10.5-1.8,16.5,0s0,3.8,11.8,2.8s7.2,0.8,17.2-1.8s8-5.5,14.8-0.8s9,6.2,12.5,10.8s1.2,6.8,6.8,8.5s5.5,6.5,8.8,9
	s2.8,1.5,6.5,6.8s7,12.3,7.5,17.3s0.5,11.5,0,15.8s-2.2,30.8-2.2,32.5s-1.2,9.2-2.5,10.2s-1,4.8-1.2,7.2s-2,8.6-2,8.6
	s-4.5-5.2-7-7.5s0.8-7.8-1.2-13.8s-2.5-1.2-3.5-9.2s-1-5-1-10s-1-15.5-2.2-18s-1.8-9-3.5-10.2s-3.5-1.8-9-2.2s-7.5,1-10.8,2.5
	s-15.8,8.2-19.8,8.2s-5.5,3.5-8.5,3s-5.2,1-6.8-0.2s-4.8-1.8-5.2-0.5s-0.5,4.8,2.5,6.2s10.2,10.5,10.2,13.2s-2.6,10.8-6.4,11
	c-3.8,0.2-10.6,1.5-12.6-2.8s-6.8-6.8-4.2-7.8s5.2,2.8,8.2,3.8s6.9,2.8,8.6,0.2c1.7-2.5-1.1-8.2-4.8-11s-6.5-2.5-8.2-6.8
	s-3.2-2-3.5-5.8s-3.2-10.2-8.2-9.8s-9,4-12.2,2s-7.8-3.2-12-3.8s-9-2.8-10.8,1s-2.5,11.5-3.2,15.8s-1.8,10-2.2,12.2s2.2,8.5-1,10.5
	s-3.8,21.5-4.8,22.2S157.3,208,155.3,208z"/>
</svg>
